<svg style="object-fit:cover" id="my-svg" version="1" baseProfile="full" width="100%" height="100%" viewBox="0 0 958 959" xmlns="http://www.w3.org/2000/svg"><rect width="958" height="959" fill="#ffffff"/><path transform="scale(-1, 1)" d="M 0,959 V 0,575 V 519 H 36 V 672 H 73 V 461 H 109 V 531 H 147 V 670 H 182 V 583 H 216 V 603 H 263 V 436 H 294 V 504 H 330 V 395 H 370 V 610 H 407 V 450 H 444 V 618 H 475 V 609 H 511 V 645 H 556 V 772 H 586 V 394 H 630 V 437 H 659 V 383 H 696 V 514 H 734 V 438 H 769 V 655 H 806 V 637 H 841 V 509 H 888 V 502 H 917 V 541 H 960 V 575 H 958 C 958,575 958,959 958,959 Z" stroke="none" stroke-width="0" fill="#4bb4a0" class="transition-all duration-300 ease-in-out delay-150" style="transform-origin: center center;"/><path transform="scale(-1, 1)" d="M 0,959 V 0,863 V 719 H 37 V 880 H 72 V 866 H 111 V 924 H 147 V 721 H 178 V 725 H 219 V 1064 H 252 V 841 H 292 V 1031 H 330 V 1071 H 375 V 723 H 412 V 680 H 435 V 703 H 481 V 704 H 509 V 837 H 545 V 825 H 594 V 989 H 619 V 1054 H 661 V 989 H 703 V 808 H 733 V 1016 H 772 V 768 H 811 V 733 H 853 V 1008 H 881 V 1038 H 925 V 783 H 959 V 863 H 958 C 958,863 958,959 958,959 Z" stroke="none" stroke-width="0" fill="#4b5fb4" class="transition-all duration-300 ease-in-out delay-150" style="transform-origin: center center;"/><path transform="scale(-1, 1)" d="M 0,959 V 0,1294 V 1277 H 35 V 1266 H 76 V 1459 H 109 V 1136 H 147 V 1156 H 189 V 1253 H 223 V 1231 H 257 V 1213 H 290 V 1261 H 327 V 1187 H 373 V 1201 H 407 V 1209 H 443 V 1266 H 472 V 1413 H 510 V 1434 H 555 V 1446 H 584 V 1136 H 627 V 1503 H 667 V 1204 H 703 V 1452 H 743 V 1356 H 769 V 1227 H 810 V 1430 H 853 V 1168 H 889 V 1393 H 924 V 1387 H 961 V 1294 H 958 C 958,1294 958,959 958,959 Z" stroke="none" stroke-width="0" fill="#b46c4b" class="transition-all duration-300 ease-in-out delay-150" style="transform-origin: center center;"/></svg>